<svg width="191" height="191" viewBox="0 0 191 191" fill="none" xmlns="http://www.w3.org/2000/svg">
<rect width="191" height="191" rx="30" fill="#292929"/>
<path d="M43.047 80.9308V85.2334V144.101C43.047 147.856 45.6546 148.795 46.9584 148.795H142.789C146.075 148.795 146.766 145.665 146.701 144.101V80.9308C146.701 77.4887 144.875 74.9332 143.963 74.0857C130.077 63.1336 101.602 40.6427 98.7853 38.2958C95.969 35.949 92.7877 37.318 91.5491 38.2958C77.533 49.3131 48.7968 71.8953 45.9806 74.0857C43.1643 76.2761 42.8514 79.5617 43.047 80.9308Z" fill="white"/>
<path d="M133.135 148.096C133.15 148.097 133.165 148.098 133.18 148.1C143.548 148.938 145.419 137.659 145.676 132.122C145.67 131.605 145.681 131.105 145.712 130.628C145.712 131.054 145.702 131.558 145.676 132.122C145.761 139.43 149.323 150.312 152 153.686C146.284 151.885 138.152 148.518 133.18 148.1C133.165 148.098 133.15 148.097 133.135 148.096Z" fill="white" stroke="white" stroke-linecap="round"/>
<path d="M64.56 94.0341C53.4515 96.8503 54.5858 122.066 56.5415 134.322C59.5143 135.574 69.9057 136.147 74.7298 136.278C82.8135 136.865 98.8636 135.065 98.3942 123.174C97.9248 111.284 86.725 109.876 81.1838 110.658C80.4015 93.4474 69.7753 92.4043 64.56 94.0341Z" fill="#292929"/>
</svg>
